PathFileType	4	(X/Y/Z)	E1.trc
DataRate	CameraRate	NumFrames	NumMarkers	Units	OrigDataRate	OrigDataStartFrame	OrigNumFrames
60.0	60.0	15	23	m	60.0	548	2190
Frame#	Time	NOSE	LEFT_EAR	RIGHT_EAR	LEFT_SHOULDER	RIGHT_SHOULDER	LEFT_ELBOW	RIGHT_ELBOW	LEFT_WRIST	RIGHT_WRIST	LEFT_INDEX	RIGHT_INDEX	LEFT_THUMB	RIGHT_THUMB	LEFT_HIP	RIGHT_HIP	LEFT_KNEE	RIGHT_KNEE	LEFT_ANKLE	RIGHT_ANKLE	LEFT_HEEL	RIGHT_HEEL	LEFT_FOOT_INDEX	RIGHT_FOOT_INDEX
		X1	Y1	Z1	X2	Y2	Z2	X3	Y3	Z3	X4	Y4	Z4	X5	Y5	Z5	X6	Y6	Z6	X7	Y7	Z7	X8	Y8	Z8	X9	Y9	Z9	X10	Y10	Z10	X11	Y11	Z11	X12	Y12	Z12	X13	Y13	Z13	X14	Y14	Z14	X15	Y15	Z15	X16	Y16	Z16	X17	Y17	Z17	X18	Y18	Z18	X19	Y19	Z19	X20	Y20	Z20	X21	Y21	Z21	X22	Y22	Z22	X23	Y23	Z23
548	9.116667	0.290035	1.204808	0.791754	0.333602	1.242499	0.714489	0.219712	1.246157	0.733933	0.440336	1.074611	0.607185	0.072906	1.085018	0.629859	0.530443	0.828032	0.748986	0.002642	0.810933	0.703495	0.354123	0.972597	0.810466	0.192423	0.972303	0.793895	0.316359	1.046962	0.820111	0.229851	1.046232	0.798539	0.316015	1.023422	0.801392	0.225948	1.028849	0.785437	0.359929	0.679450	0.295665	0.117766	0.686644	0.297148	0.548162	0.486493	0.561566	-0.075174	0.482361	0.559948	0.520207	0.090796	0.426297	-0.053274	0.086412	0.390975	0.496930	0.029332	0.387906	-0.025332	0.037622	0.388174	0.598549	0.022824	0.541052	-0.140344	0.006146	0.570113
549	9.133333	0.293774	1.188170	0.792972	0.335918	1.225534	0.718180	0.222224	1.230496	0.735163	0.441796	1.060242	0.612552	0.074122	1.071429	0.630843	0.530086	0.817497	0.750184	0.002884	0.798599	0.708476	0.353101	0.963573	0.811984	0.191891	0.961117	0.797923	0.316167	1.038401	0.822536	0.230025	1.035116	0.801048	0.316430	1.016144	0.803734	0.226553	1.020457	0.789584	0.359708	0.669377	0.293715	0.118481	0.676118	0.293641	0.552718	0.484168	0.558594	-0.075639	0.480638	0.563321	0.519693	0.090508	0.427132	-0.053075	0.088352	0.394202	0.494792	0.029648	0.389626	-0.025287	0.038322	0.389410	0.600153	0.021181	0.538435	-0.138375	0.004044	0.570990
550	9.150000	0.295675	1.172655	0.797669	0.338041	1.210542	0.723262	0.224772	1.215711	0.739056	0.442389	1.044467	0.614247	0.075049	1.059195	0.632215	0.527610	0.807036	0.754737	0.002412	0.787832	0.709107	0.350250	0.958721	0.817927	0.193036	0.952766	0.799599	0.315956	1.031865	0.824681	0.230970	1.026531	0.802105	0.315057	1.008138	0.808475	0.225962	1.011104	0.787571	0.359469	0.659382	0.291211	0.118473	0.665540	0.291213	0.559419	0.482727	0.554898	-0.077649	0.477773	0.568744	0.519231	0.089567	0.428544	-0.054056	0.089713	0.396435	0.492007	0.025812	0.398504	-0.026005	0.038645	0.390222	0.603527	0.017602	0.536570	-0.137591	0.002996	0.570059
551	9.166667	0.298142	1.158227	0.803160	0.339396	1.196255	0.727934	0.227250	1.201606	0.743971	0.442865	1.029348	0.617447	0.076594	1.044477	0.636073	0.527349	0.795134	0.767100	0.001840	0.773873	0.714121	0.347293	0.947211	0.820091	0.191462	0.941140	0.798131	0.311205	1.014634	0.821660	0.230548	1.014923	0.802218	0.314426	0.998225	0.810900	0.224635	1.000695	0.786268	0.358421	0.650248	0.288643	0.118238	0.656128	0.290396	0.562130	0.478222	0.562393	-0.077749	0.477044	0.577342	0.520271	0.086004	0.429362	-0.054274	0.091105	0.397992	0.492789	0.024928	0.398012	-0.027085	0.036447	0.394390	0.605186	0.011307	0.539876	-0.136046	0.002386	0.572220
552	9.183333	0.299140	1.143950	0.809115	0.339858	1.182716	0.731972	0.228154	1.188139	0.749217	0.442287	1.015247	0.620754	0.077882	1.032822	0.639379	0.528249	0.781197	0.777881	0.001915	0.763067	0.718417	0.349346	0.936592	0.823171	0.192415	0.934742	0.800535	0.314642	1.002693	0.825234	0.230767	1.007591	0.803107	0.318071	0.986603	0.813588	0.224966	0.990707	0.787752	0.356747	0.640050	0.286126	0.118062	0.647126	0.288191	0.563610	0.476185	0.572655	-0.078815	0.475898	0.579184	0.520518	0.085374	0.429741	-0.055500	0.097172	0.428253	0.493254	0.025735	0.398331	-0.026911	0.036482	0.392627	0.606037	0.008618	0.537433	-0.136450	0.001958	0.567410
553	9.200000	0.301090	1.130927	0.811843	0.339547	1.170193	0.734330	0.229142	1.174161	0.752901	0.441361	0.998453	0.623759	0.077786	1.020579	0.641303	0.529432	0.769540	0.784031	0.002128	0.749250	0.725088	0.354291	0.927856	0.830198	0.192997	0.924465	0.804041	0.318018	0.992092	0.827840	0.230140	0.998711	0.803877	0.321189	0.976092	0.815621	0.225426	0.979251	0.789157	0.356193	0.628656	0.284483	0.117921	0.636704	0.287366	0.564261	0.473522	0.576651	-0.079258	0.474793	0.583629	0.519273	0.087260	0.430109	-0.055993	0.098369	0.429833	0.493316	0.026460	0.398708	-0.026794	0.036434	0.392348	0.608898	0.011206	0.536047	-0.136281	0.001176	0.565057
554	9.216667	0.301090	1.116532	0.814683	0.339886	1.154972	0.737184	0.229854	1.160332	0.755674	0.442122	0.985554	0.628215	0.077562	1.008676	0.641970	0.530708	0.759692	0.788947	0.003641	0.739858	0.734079	0.353982	0.917201	0.833873	0.193382	0.912493	0.806589	0.322216	0.983901	0.832958	0.230379	0.986071	0.804990	0.324263	0.967564	0.820950	0.226856	0.968398	0.792367	0.355870	0.620415	0.283768	0.118905	0.626439	0.283774	0.564681	0.470592	0.581378	-0.079555	0.472335	0.586054	0.519441	0.088401	0.429497	-0.056095	0.098631	0.430866	0.493331	0.026504	0.399097	-0.026913	0.036426	0.391753	0.609709	0.014157	0.535827	-0.136613	0.001165	0.560156
555	9.233333	0.300478	1.103943	0.819359	0.340027	1.141043	0.739955	0.230918	1.147184	0.759990	0.441037	0.973224	0.629188	0.078459	0.997508	0.643681	0.527112	0.749059	0.792723	0.001312	0.731754	0.736210	0.354487	0.910350	0.835985	0.192078	0.903409	0.809415	0.325327	0.975069	0.835811	0.230251	0.977844	0.808990	0.327149	0.958986	0.824236	0.225990	0.960001	0.794623	0.352331	0.613328	0.280871	0.117706	0.619141	0.283145	0.565285	0.468685	0.586193	-0.078731	0.472314	0.592022	0.520381	0.086203	0.429783	-0.055843	0.098132	0.433148	0.493633	0.025848	0.399740	-0.027361	0.037186	0.393401	0.609855	0.012768	0.537340	-0.136556	0.001002	0.565093
556	9.250000	0.298552	1.089750	0.822102	0.340216	1.126681	0.742349	0.230184	1.133204	0.762784	0.441671	0.961288	0.630677	0.079001	0.985323	0.646481	0.528843	0.737922	0.797249	-0.000158	0.719621	0.741171	0.352948	0.902526	0.837408	0.190541	0.889362	0.810621	0.326852	0.968310	0.838391	0.229564	0.963634	0.810483	0.328006	0.952704	0.827371	0.224090	0.946141	0.794578	0.350769	0.602836	0.278791	0.117008	0.610435	0.282664	0.565534	0.467166	0.587658	-0.079572	0.472578	0.593387	0.522877	0.097575	0.424571	-0.054586	0.096560	0.434668	0.493820	0.025104	0.399334	-0.027074	0.038380	0.393056	0.613231	0.020274	0.532845	-0.135923	0.001520	0.568338
557	9.266667	0.295280	1.078531	0.823853	0.339011	1.114420	0.743922	0.228551	1.120124	0.763501	0.442659	0.950202	0.634766	0.078784	0.974011	0.646802	0.524657	0.733456	0.805836	-0.001345	0.711574	0.740333	0.351169	0.895965	0.842180	0.190860	0.880675	0.812817	0.326395	0.956369	0.843225	0.229820	0.955039	0.814605	0.327777	0.943302	0.831395	0.224500	0.937130	0.798052	0.347922	0.596689	0.277685	0.115796	0.603922	0.282654	0.565050	0.466075	0.588989	-0.080015	0.471130	0.593302	0.522664	0.094029	0.426849	-0.054522	0.095956	0.435087	0.494547	0.025076	0.399670	-0.026085	0.037414	0.393395	0.614292	0.017924	0.532988	-0.135404	0.001179	0.569899
558	9.283333	0.293658	1.066913	0.825616	0.337577	1.101484	0.745396	0.227697	1.107752	0.765100	0.441478	0.940779	0.635577	0.078468	0.960120	0.649607	0.525469	0.726980	0.802642	-0.002641	0.705580	0.742511	0.342111	0.882638	0.836964	0.188512	0.875231	0.811683	0.326145	0.949360	0.844691	0.227177	0.943558	0.812078	0.326711	0.936505	0.833970	0.221871	0.928622	0.795898	0.345569	0.588782	0.272623	0.115562	0.594947	0.282763	0.566572	0.463988	0.592001	-0.079720	0.472673	0.597276	0.521800	0.087057	0.430376	-0.053155	0.094163	0.436413	0.494540	0.024550	0.400000	-0.024358	0.036441	0.395230	0.614337	0.011753	0.535461	-0.133510	-0.001160	0.575297
559	9.300000	0.292942	1.053922	0.825637	0.336975	1.089056	0.747390	0.227135	1.095233	0.765638	0.440049	0.929679	0.640790	0.079614	0.951236	0.652285	0.526516	0.711524	0.808342	-0.002557	0.695195	0.745254	0.341642	0.872074	0.841656	0.187737	0.864780	0.812733	0.325345	0.940869	0.849870	0.226571	0.936919	0.811404	0.328140	0.925731	0.839545	0.221141	0.920410	0.795977	0.343915	0.581860	0.272623	0.114977	0.587126	0.281626	0.566915	0.462186	0.592309	-0.078709	0.472806	0.600957	0.521892	0.087704	0.430304	-0.052808	0.094319	0.438265	0.494254	0.024225	0.400264	-0.024956	0.038832	0.399044	0.611765	0.013374	0.529299	-0.133060	-0.000946	0.579316
560	9.316667	0.292906	1.043126	0.828420	0.336779	1.080109	0.750326	0.226687	1.084453	0.768119	0.439929	0.919815	0.642812	0.079470	0.939825	0.655744	0.526734	0.702320	0.810656	-0.002310	0.686248	0.744205	0.342310	0.863557	0.843642	0.189520	0.855052	0.812428	0.327035	0.931596	0.852614	0.225855	0.927973	0.812811	0.329507	0.916859	0.844700	0.221772	0.909845	0.795870	0.343612	0.575752	0.271580	0.114890	0.580517	0.280636	0.567198	0.461260	0.593402	-0.081081	0.472517	0.602496	0.524920	0.098456	0.426504	-0.052823	0.094054	0.439053	0.494920	0.023492	0.400213	-0.026240	0.040922	0.402872	0.612561	0.022440	0.525135	-0.132471	-0.001185	0.580585
561	9.333333	0.291896	1.033037	0.831661	0.335647	1.068645	0.753587	0.226504	1.074471	0.770379	0.440130	0.907855	0.645385	0.080152	0.929325	0.659766	0.526137	0.694927	0.815391	-0.002197	0.678982	0.744915	0.340017	0.855924	0.846934	0.189820	0.844288	0.813947	0.328569	0.923985	0.855978	0.226143	0.919269	0.814074	0.331436	0.908400	0.847625	0.222034	0.898480	0.798091	0.341679	0.565500	0.272813	0.114420	0.573331	0.281986	0.566248	0.458850	0.597034	-0.082241	0.470601	0.604477	0.523902	0.093906	0.427525	-0.052639	0.093787	0.440415	0.495173	0.022786	0.399745	-0.026313	0.041318	0.404497	0.611309	0.018013	0.524688	-0.130294	-0.002510	0.585693
562	9.350000	0.290464	1.024218	0.832894	0.334840	1.057728	0.755402	0.225543	1.064164	0.771171	0.440525	0.899312	0.646689	0.080761	0.921909	0.659797	0.526355	0.676210	0.818373	-0.010136	0.671266	0.740447	0.341966	0.845912	0.847401	0.191470	0.836984	0.816203	0.330310	0.915671	0.856391	0.227576	0.909537	0.815186	0.333085	0.899501	0.848227	0.223166	0.890684	0.798839	0.341678	0.557163	0.270459	0.113848	0.564707	0.283457	0.566781	0.455550	0.598496	-0.081728	0.469888	0.604907	0.523898	0.093384	0.428958	-0.052614	0.094192	0.442647	0.495935	0.022840	0.400241	-0.026127	0.041932	0.405326	0.611353	0.019222	0.537611	-0.131388	0.000564	0.593271
